<svg xmlns="http://www.w3.org/2000/svg" xmlns:xlink="http://www.w3.org/1999/xlink" fill="none" version="1.1" width="94" height="81" viewBox="0 0 94 81"><g><path d="M34.0298,63L4.57276,63L4.57276,50.5224L10.2444,50.5224L10.2444,19.0802L4.57276,19.0802L4.57276,6.60263L40.8004,6.60263Q49.5914,6.60263,53.7211,10.1474Q57.8507,13.6922,57.8507,21.9161Q57.8507,27.4105,54.7668,30.3881Q51.6828,33.3657,46.0112,34.3937Q51.1157,35.209,53.3666,38.222Q55.6175,41.2351,55.6175,45.7369L55.6175,50.3097L63.5224,50.3097L63.5224,63L52.1082,63Q48.4571,63,46.2239,62.7341Q43.9907,62.4683,42.6968,61.458Q41.403,60.4478,40.5522,58.2854Q39.2761,55.0243,39.2761,47.403Q39.2761,43.0429,37.8582,40.9338Q36.4403,38.8246,32.6828,38.8246L28.3936,38.8246L28.3936,50.5224L34.0298,50.5224L34.0298,63ZM28.3936,19.0802L28.3936,30.778L33.25,30.778Q37.1138,30.778,38.9925,29.3955Q40.8713,28.0131,40.8713,24.5392Q40.8713,21.987,38.9394,20.5336Q37.0075,19.0802,33.9589,19.0802L28.3936,19.0802ZM82.7668,64.028Q78.6548,64.028,75.7481,61.5466Q72.9832,59.2425,72.9832,55.0952Q72.9832,51.0187,75.7481,48.7855Q78.5485,46.375,82.7668,46.375Q87.3395,46.375,90.1753,48.7855Q93.0112,51.1959,93.0112,55.0952Q93.0112,59.0653,90.1045,61.5466Q87.1623,63.9571,82.8731,63.9571L82.7668,64.028Z" fill="#000000" fill-opacity="1"/></g></svg>