<svg xmlns="http://www.w3.org/2000/svg" xmlns:xlink="http://www.w3.org/1999/xlink" fill="none" version="1.1" width="24" height="24" viewBox="0 0 24 24"><defs><clipPath id="master_svg0_42_00981"><rect x="0" y="0" width="24" height="24" rx="0"/></clipPath></defs><g clip-path="url(#master_svg0_42_00981)"><g><path d="M10,2L9,3L3,3L3,5L4.10938,5L5.902340000000001,20.2344C6.01959,21.234,6.882,22,7.88867,22L16.1113,22C17.118000000000002,22,17.9804,21.234,18.0977,20.2344L19.8906,5L21,5L21,3L19,3L15,3L14,2L10,2ZM6.12305,5L7,5L17.877000000000002,5L16.1113,20L7.88867,20L6.12305,5ZM9,7L9,17C9,17.552,9.448,18,10,18L11,18L11,7L9,7ZM13,7L13,18L14,18C14.552,18,15,17.552,15,17L15,7L13,7Z" fill="#131315" fill-opacity="1" style="mix-blend-mode:passthrough"/></g></g></svg>